<?xml version="1.0" encoding="UTF-8" standalone="no"?>
<svg xmlns="http://www.w3.org/2000/svg" width="525" height="600" version="1.0">
  <path stroke="#000" stroke-linejoin="round" stroke-width="2" d="M15.55 499.24c0-9.36 33.71-56.32 74.91-104.36 41.2-48.04 80.9-94.69 88.23-103.66 7.33-8.97-.28-61.05-16.91-115.73-34.46-113.27-37.6-150.94-13.82-165.64 32.51-20.09 77.12 9.6 114.57 76.22l37.94 67.5 71.24-69.92C418.56 37.68 452 17.2 469.36 23.86c34.34 13.18 54.16 64.75 28.2 73.4-29.45 9.82-151.38 195.37-151.15 230.03.1 16.41 17.43 59.98 38.5 96.8 14.86 25.99 34.83 46.48 26.9 60.58l-42.38 75.32c-8.22 14.6-38.58-24.34-74.55-62.15l-62.73-65.95-69.56 82.48c-38.25 45.37-73.96 82.25-79.36 81.97-5.4-.29-67.68-87.75-67.68-97.1z"/>
</svg>